# xmcd
#
# Track frame offsets:
#	150
#	15685
#	36235
#	53185
#	76510
#	95110
#	115435
#	133585
#	158035
#	172885
#	191035
#	209110
#	226060
#
# Disc length: 3217 seconds
#
# Revision: 1
# Processed by: cddbd v1.5.2PL0 Copyright (c) Steve Scherf et al.
# Submitted via: audiograbber 1.83.01
#
DISCID=aa0c8f0d
DTITLE=Alexis Venegas - Canto Por Ti
DYEAR=2008
DGENRE=Pop
TTITLE0=Un Click De Amor
TTITLE1=11 Besos
TTITLE2=Nena, Soy Lo Que Tú Querías
TTITLE3=Agradezco
TTITLE4=Amando A Muerte
TTITLE5=Como Ayer
TTITLE6=Deja Que La Primavera
TTITLE7=Canto Por Ti
TTITLE8=Universo
TTITLE9=Frágil
TTITLE10=Mujer Fragancia
TTITLE11=Te Deseo Lo Mejor
TTITLE12=Un Click De Amor (Bonus Track)
EXTD=http://www.selloazul.cl/
EXTT0=
EXTT1=
EXTT2=
EXTT3=
EXTT4=
EXTT5=
EXTT6=
EXTT7=
EXTT8=
EXTT9=
EXTT10=
EXTT11=
EXTT12=
PLAYORDER=
